<mxfile host="app.diagrams.net" modified="2023-12-09T18:54:08.871Z" agent="Mozilla/5.0 (Windows NT 10.0; Win64; x64) AppleWebKit/537.36 (KHTML, like Gecko) Chrome/120.0.0.0 Safari/537.36" etag="TvjOAqD1uQrO2MAd1FIp" version="22.1.7" type="github">
  <diagram name="第 1 页" id="cvJg5r2_bGF5AAVTMP5e">
    <mxGraphModel dx="1050" dy="1703" grid="1" gridSize="10" guides="1" tooltips="1" connect="1" arrows="1" fold="1" page="1" pageScale="1" pageWidth="827" pageHeight="1169" math="0" shadow="0">
      <root>
        <mxCell id="0" />
        <mxCell id="1" parent="0" />
        <mxCell id="7bbPv3pXGXziI5p-zt5V-1" value="&lt;font style=&quot;font-size: 22px;&quot;&gt;Context&lt;/font&gt;" style="rounded=1;whiteSpace=wrap;html=1;fillColor=#d5e8d4;strokeColor=#82b366;" vertex="1" parent="1">
          <mxGeometry x="175" y="510" width="560" height="40" as="geometry" />
        </mxCell>
        <mxCell id="7bbPv3pXGXziI5p-zt5V-44" style="edgeStyle=orthogonalEdgeStyle;rounded=0;orthogonalLoop=1;jettySize=auto;html=1;exitX=0.5;exitY=0;exitDx=0;exitDy=0;entryX=0.5;entryY=1;entryDx=0;entryDy=0;" edge="1" parent="1" source="7bbPv3pXGXziI5p-zt5V-2" target="7bbPv3pXGXziI5p-zt5V-42">
          <mxGeometry relative="1" as="geometry" />
        </mxCell>
        <mxCell id="7bbPv3pXGXziI5p-zt5V-2" value="&lt;font style=&quot;font-size: 22px;&quot;&gt;Bert Model 2&lt;/font&gt;" style="rounded=1;whiteSpace=wrap;html=1;fillColor=#ffe6cc;strokeColor=#d79b00;" vertex="1" parent="1">
          <mxGeometry x="180" y="90" width="830" height="40" as="geometry" />
        </mxCell>
        <mxCell id="7bbPv3pXGXziI5p-zt5V-8" value="" style="edgeStyle=orthogonalEdgeStyle;rounded=0;orthogonalLoop=1;jettySize=auto;html=1;" edge="1" parent="1" source="7bbPv3pXGXziI5p-zt5V-4" target="7bbPv3pXGXziI5p-zt5V-7">
          <mxGeometry relative="1" as="geometry" />
        </mxCell>
        <mxCell id="7bbPv3pXGXziI5p-zt5V-4" value="&lt;font style=&quot;font-size: 22px;&quot;&gt;WordNet&lt;/font&gt;" style="shape=cylinder3;whiteSpace=wrap;html=1;boundedLbl=1;backgroundOutline=1;size=15;fillColor=#e1d5e7;strokeColor=#9673a6;" vertex="1" parent="1">
          <mxGeometry x="755" y="390" width="190" height="60" as="geometry" />
        </mxCell>
        <mxCell id="7bbPv3pXGXziI5p-zt5V-5" value="" style="edgeStyle=orthogonalEdgeStyle;rounded=0;orthogonalLoop=1;jettySize=auto;html=1;" edge="1" parent="1" source="7bbPv3pXGXziI5p-zt5V-6" target="7bbPv3pXGXziI5p-zt5V-4">
          <mxGeometry relative="1" as="geometry" />
        </mxCell>
        <mxCell id="7bbPv3pXGXziI5p-zt5V-6" value="&lt;font style=&quot;font-size: 22px;&quot;&gt;Target Word&lt;/font&gt;" style="rounded=1;whiteSpace=wrap;html=1;fillColor=#fff2cc;strokeColor=#d6b656;" vertex="1" parent="1">
          <mxGeometry x="765" y="510" width="170" height="40" as="geometry" />
        </mxCell>
        <mxCell id="7bbPv3pXGXziI5p-zt5V-7" value="&lt;font style=&quot;font-size: 22px;&quot;&gt;Gloss&lt;/font&gt;" style="rounded=1;whiteSpace=wrap;html=1;fillColor=#fff2cc;strokeColor=#d6b656;" vertex="1" parent="1">
          <mxGeometry x="765" y="300" width="170" height="40" as="geometry" />
        </mxCell>
        <mxCell id="7bbPv3pXGXziI5p-zt5V-11" value="&lt;font style=&quot;font-size: 20px;&quot;&gt;[CLS]&lt;/font&gt;" style="rounded=1;whiteSpace=wrap;html=1;fillColor=#f5f5f5;fontColor=#333333;strokeColor=#666666;" vertex="1" parent="1">
          <mxGeometry x="180" y="140" width="60" height="40" as="geometry" />
        </mxCell>
        <mxCell id="7bbPv3pXGXziI5p-zt5V-12" value="&lt;font style=&quot;font-size: 20px;&quot;&gt;This&lt;/font&gt;" style="rounded=1;whiteSpace=wrap;html=1;fillColor=#f5f5f5;fontColor=#333333;strokeColor=#666666;" vertex="1" parent="1">
          <mxGeometry x="250" y="140" width="60" height="40" as="geometry" />
        </mxCell>
        <mxCell id="7bbPv3pXGXziI5p-zt5V-13" value="&lt;font style=&quot;font-size: 20px;&quot;&gt;is&lt;/font&gt;" style="rounded=1;whiteSpace=wrap;html=1;fillColor=#f5f5f5;fontColor=#333333;strokeColor=#666666;" vertex="1" parent="1">
          <mxGeometry x="320" y="140" width="60" height="40" as="geometry" />
        </mxCell>
        <mxCell id="7bbPv3pXGXziI5p-zt5V-14" value="&lt;font style=&quot;font-size: 20px;&quot;&gt;[TGT]&lt;/font&gt;" style="rounded=1;whiteSpace=wrap;html=1;fillColor=#f5f5f5;fontColor=#333333;strokeColor=#666666;" vertex="1" parent="1">
          <mxGeometry x="390" y="140" width="60" height="40" as="geometry" />
        </mxCell>
        <mxCell id="7bbPv3pXGXziI5p-zt5V-15" value="&lt;font style=&quot;font-size: 20px;&quot;&gt;a&lt;/font&gt;" style="rounded=1;whiteSpace=wrap;html=1;fillColor=#f5f5f5;fontColor=#333333;strokeColor=#666666;" vertex="1" parent="1">
          <mxGeometry x="460" y="140" width="60" height="40" as="geometry" />
        </mxCell>
        <mxCell id="7bbPv3pXGXziI5p-zt5V-16" value="&lt;font style=&quot;font-size: 20px;&quot;&gt;[TGT]&lt;/font&gt;" style="rounded=1;whiteSpace=wrap;html=1;fillColor=#f5f5f5;fontColor=#333333;strokeColor=#666666;" vertex="1" parent="1">
          <mxGeometry x="390" y="140" width="60" height="40" as="geometry" />
        </mxCell>
        <mxCell id="7bbPv3pXGXziI5p-zt5V-18" value="&lt;font style=&quot;font-size: 20px;&quot;&gt;[TGT]&lt;/font&gt;" style="rounded=1;whiteSpace=wrap;html=1;fillColor=#f5f5f5;fontColor=#333333;strokeColor=#666666;" vertex="1" parent="1">
          <mxGeometry x="530" y="140" width="60" height="40" as="geometry" />
        </mxCell>
        <mxCell id="7bbPv3pXGXziI5p-zt5V-19" value="&lt;font style=&quot;font-size: 20px;&quot;&gt;Word&lt;/font&gt;" style="rounded=1;whiteSpace=wrap;html=1;fillColor=#f5f5f5;fontColor=#333333;strokeColor=#666666;" vertex="1" parent="1">
          <mxGeometry x="600" y="140" width="60" height="40" as="geometry" />
        </mxCell>
        <mxCell id="7bbPv3pXGXziI5p-zt5V-20" value="&lt;span style=&quot;font-size: 20px;&quot;&gt;[SEP]&lt;/span&gt;" style="rounded=1;whiteSpace=wrap;html=1;fillColor=#f5f5f5;fontColor=#333333;strokeColor=#666666;" vertex="1" parent="1">
          <mxGeometry x="670" y="140" width="60" height="40" as="geometry" />
        </mxCell>
        <mxCell id="7bbPv3pXGXziI5p-zt5V-21" value="&lt;font style=&quot;font-size: 20px;&quot;&gt;The&lt;/font&gt;" style="rounded=1;whiteSpace=wrap;html=1;fillColor=#f5f5f5;fontColor=#333333;strokeColor=#666666;" vertex="1" parent="1">
          <mxGeometry x="740" y="140" width="60" height="40" as="geometry" />
        </mxCell>
        <mxCell id="7bbPv3pXGXziI5p-zt5V-22" value="&lt;font style=&quot;font-size: 20px;&quot;&gt;first&lt;/font&gt;" style="rounded=1;whiteSpace=wrap;html=1;fillColor=#f5f5f5;fontColor=#333333;strokeColor=#666666;" vertex="1" parent="1">
          <mxGeometry x="810" y="140" width="60" height="40" as="geometry" />
        </mxCell>
        <mxCell id="7bbPv3pXGXziI5p-zt5V-23" value="&lt;font style=&quot;font-size: 20px;&quot;&gt;Word&lt;/font&gt;" style="rounded=1;whiteSpace=wrap;html=1;fillColor=#f5f5f5;fontColor=#333333;strokeColor=#666666;" vertex="1" parent="1">
          <mxGeometry x="880" y="140" width="60" height="40" as="geometry" />
        </mxCell>
        <mxCell id="7bbPv3pXGXziI5p-zt5V-24" value="&lt;span style=&quot;font-size: 20px;&quot;&gt;[SEP]&lt;/span&gt;" style="rounded=1;whiteSpace=wrap;html=1;fillColor=#f5f5f5;fontColor=#333333;strokeColor=#666666;" vertex="1" parent="1">
          <mxGeometry x="950" y="140" width="60" height="40" as="geometry" />
        </mxCell>
        <mxCell id="7bbPv3pXGXziI5p-zt5V-35" value="&lt;font style=&quot;font-size: 22px;&quot;&gt;Data Process&lt;/font&gt;" style="rounded=1;whiteSpace=wrap;html=1;fillColor=#f8cecc;strokeColor=#b85450;" vertex="1" parent="1">
          <mxGeometry x="180" y="200" width="820" height="40" as="geometry" />
        </mxCell>
        <mxCell id="7bbPv3pXGXziI5p-zt5V-37" style="edgeStyle=orthogonalEdgeStyle;rounded=0;orthogonalLoop=1;jettySize=auto;html=1;exitX=0.5;exitY=0;exitDx=0;exitDy=0;entryX=0.336;entryY=1.01;entryDx=0;entryDy=0;entryPerimeter=0;" edge="1" parent="1" source="7bbPv3pXGXziI5p-zt5V-1" target="7bbPv3pXGXziI5p-zt5V-35">
          <mxGeometry relative="1" as="geometry" />
        </mxCell>
        <mxCell id="7bbPv3pXGXziI5p-zt5V-38" style="edgeStyle=orthogonalEdgeStyle;rounded=0;orthogonalLoop=1;jettySize=auto;html=1;exitX=0.5;exitY=0;exitDx=0;exitDy=0;entryX=0.817;entryY=1.03;entryDx=0;entryDy=0;entryPerimeter=0;" edge="1" parent="1" source="7bbPv3pXGXziI5p-zt5V-7" target="7bbPv3pXGXziI5p-zt5V-35">
          <mxGeometry relative="1" as="geometry" />
        </mxCell>
        <mxCell id="7bbPv3pXGXziI5p-zt5V-39" value="&lt;font style=&quot;font-size: 22px;&quot;&gt;This is a word.&lt;/font&gt;" style="text;html=1;strokeColor=none;fillColor=none;align=center;verticalAlign=middle;whiteSpace=wrap;rounded=0;" vertex="1" parent="1">
          <mxGeometry x="337" y="560" width="236" height="30" as="geometry" />
        </mxCell>
        <mxCell id="7bbPv3pXGXziI5p-zt5V-40" value="&lt;font style=&quot;font-size: 22px;&quot;&gt;a&lt;/font&gt;" style="text;html=1;strokeColor=none;fillColor=none;align=center;verticalAlign=middle;whiteSpace=wrap;rounded=0;" vertex="1" parent="1">
          <mxGeometry x="732" y="560" width="236" height="30" as="geometry" />
        </mxCell>
        <mxCell id="7bbPv3pXGXziI5p-zt5V-49" style="edgeStyle=orthogonalEdgeStyle;rounded=0;orthogonalLoop=1;jettySize=auto;html=1;exitX=0.5;exitY=0;exitDx=0;exitDy=0;entryX=1;entryY=0.5;entryDx=0;entryDy=0;" edge="1" parent="1" source="7bbPv3pXGXziI5p-zt5V-41" target="7bbPv3pXGXziI5p-zt5V-46">
          <mxGeometry relative="1" as="geometry" />
        </mxCell>
        <mxCell id="7bbPv3pXGXziI5p-zt5V-50" style="edgeStyle=orthogonalEdgeStyle;rounded=0;orthogonalLoop=1;jettySize=auto;html=1;exitX=0.5;exitY=0;exitDx=0;exitDy=0;entryX=0;entryY=0.5;entryDx=0;entryDy=0;" edge="1" parent="1" source="7bbPv3pXGXziI5p-zt5V-41" target="7bbPv3pXGXziI5p-zt5V-47">
          <mxGeometry relative="1" as="geometry" />
        </mxCell>
        <mxCell id="7bbPv3pXGXziI5p-zt5V-41" value="&lt;font style=&quot;font-size: 22px;&quot;&gt;Classification Layer&lt;/font&gt;" style="rounded=1;whiteSpace=wrap;html=1;fillColor=#e1d5e7;strokeColor=#9673a6;" vertex="1" parent="1">
          <mxGeometry x="460" y="-40" width="270" height="40" as="geometry" />
        </mxCell>
        <mxCell id="7bbPv3pXGXziI5p-zt5V-45" value="" style="edgeStyle=orthogonalEdgeStyle;rounded=0;orthogonalLoop=1;jettySize=auto;html=1;" edge="1" parent="1" source="7bbPv3pXGXziI5p-zt5V-42" target="7bbPv3pXGXziI5p-zt5V-41">
          <mxGeometry relative="1" as="geometry" />
        </mxCell>
        <mxCell id="7bbPv3pXGXziI5p-zt5V-42" value="&lt;font style=&quot;font-size: 20px;&quot;&gt;[CLS]&lt;/font&gt;" style="rounded=1;whiteSpace=wrap;html=1;fillColor=#f5f5f5;fontColor=#333333;strokeColor=#666666;" vertex="1" parent="1">
          <mxGeometry x="565" y="30" width="60" height="40" as="geometry" />
        </mxCell>
        <mxCell id="7bbPv3pXGXziI5p-zt5V-46" value="&lt;font style=&quot;font-size: 22px;&quot;&gt;True&lt;/font&gt;" style="ellipse;whiteSpace=wrap;html=1;fillColor=#e51400;fontColor=#ffffff;strokeColor=#B20000;" vertex="1" parent="1">
          <mxGeometry x="480" y="-120" width="70" height="40" as="geometry" />
        </mxCell>
        <mxCell id="7bbPv3pXGXziI5p-zt5V-47" value="&lt;font style=&quot;font-size: 22px;&quot;&gt;False&lt;/font&gt;" style="ellipse;whiteSpace=wrap;html=1;fillColor=#e3c800;fontColor=#000000;strokeColor=#B09500;" vertex="1" parent="1">
          <mxGeometry x="640" y="-120" width="70" height="40" as="geometry" />
        </mxCell>
      </root>
    </mxGraphModel>
  </diagram>
</mxfile>
